# xmcd CD database file
#
# Track frame offsets:
#	150
#	33277
#	63875
#	85202
#	100612
#	116812
#	143030
#	164095
#
# Disc length: 2518 seconds
#
# Revision: 0
# Processed by: cddbd v1.5.2PL0 Copyright (c) Steve Scherf et al.
# Submitted via: CDex 1.70beta2
#
DISCID=6409d408
DTITLE=Sadao Watanabe - Sadao Watanabe
DYEAR=1961
DGENRE=Jazz
TTITLE0=Del Sasser
TTITLE1=Romanade
TTITLE2=Now's The Time
TTITLE3=Just In Time
TTITLE4=Greasy
TTITLE5=M&M
TTITLE6=Amen
TTITLE7=My Elegy
EXTD=YEAR: 1961
EXTT0=
EXTT1=
EXTT2=
EXTT3=
EXTT4=
EXTT5=
EXTT6=
EXTT7=
PLAYORDER=
